HIERARCHY
ROOT Hips
{
	OFFSET 0.000000 0.000000 0.000000
	CHANNELS 6 Xposition Yposition Zposition Xrotation Yrotation Zrotation
	JOINT LeftUpLeg_virtual
	{
		OFFSET 0.000000 0.000000 0.000000
		CHANNELS 3 Xrotation Yrotation Zrotation
		JOINT LeftUpLeg
		{
			OFFSET 13.026900 -6.336304 -1.092800
			CHANNELS 3 Xrotation Yrotation Zrotation
			JOINT LeftLeg
			{
				OFFSET 0.524474 -46.096886 9.782700
				CHANNELS 3 Xrotation Yrotation Zrotation
				JOINT LeftFoot
				{
					OFFSET -0.524474 -53.427422 -12.948200
					CHANNELS 3 Xrotation Yrotation Zrotation
					JOINT LeftToeBase
					{
						OFFSET 0.192200 -14.009700 16.364100
						CHANNELS 3 Xrotation Yrotation Zrotation
						JOINT LeftToe_End
						{
							OFFSET -1.784700 -0.561700 9.474800
							CHANNELS 3 Xrotation Yrotation Zrotation
							End Site
							{
								OFFSET 0 0 0
							}
						}
					}
				}
			}
		}
	}
	JOINT RightUpLeg_virtual
	{
		OFFSET 0.000000 0.000000 0.000000
		CHANNELS 3 Xrotation Yrotation Zrotation
		JOINT RightUpLeg
		{
			OFFSET -12.883000 -6.336304 -1.092800
			CHANNELS 3 Xrotation Yrotation Zrotation
			JOINT RightLeg
			{
				OFFSET -0.524587 -46.096825 9.782800
				CHANNELS 3 Xrotation Yrotation Zrotation
				JOINT RightFoot
				{
					OFFSET 0.524587 -53.427383 -12.948300
					CHANNELS 3 Xrotation Yrotation Zrotation
					JOINT RightToeBase
					{
						OFFSET -0.192200 -14.009700 16.364100
						CHANNELS 3 Xrotation Yrotation Zrotation
						JOINT RightToe_End
						{
							OFFSET 1.784700 -0.561700 9.474800
							CHANNELS 3 Xrotation Yrotation Zrotation
							End Site
							{
								OFFSET 0 0 0
							}
						}
					}
				}
			}
		}
	}
	JOINT Spine_virtual
	{
		OFFSET 0.000000 0.000000 0.000000
		CHANNELS 3 Xrotation Yrotation Zrotation
		JOINT Spine
		{
			OFFSET 0.072000 7.257294 -0.789700
			CHANNELS 3 Xrotation Yrotation Zrotation
			JOINT Spine1
			{
				OFFSET 0.000000 12.508769 -0.658067
				CHANNELS 3 Xrotation Yrotation Zrotation
				JOINT Spine1_split
				{
					OFFSET 0.000000 12.508769 -0.658067
					CHANNELS 3 Xrotation Yrotation Zrotation
					JOINT Spine2
					{
						OFFSET 0.000000 12.508769 -0.658067
						CHANNELS 3 Xrotation Yrotation Zrotation
						JOINT Neck_virtual
						{
							OFFSET 0.000000 0.000000 0.000000
							CHANNELS 3 Xrotation Yrotation Zrotation
							JOINT Neck
							{
								OFFSET 0.000000 14.033295 7.520400
								CHANNELS 3 Xrotation Yrotation Zrotation
								JOINT Head
								{
									OFFSET 0.000000 8.198502 5.703100
									CHANNELS 3 Xrotation Yrotation Zrotation
									JOINT HeadTop_End
									{
										OFFSET 0.000000 17.760803 13.332701
										CHANNELS 3 Xrotation Yrotation Zrotation
										End Site
										{
											OFFSET 0 0 0
										}
									}
								}
							}
						}
						JOINT LeftShoulder_virtual
						{
							OFFSET 0.000000 0.000000 0.000000
							CHANNELS 3 Xrotation Yrotation Zrotation
							JOINT LeftShoulder
							{
								OFFSET 6.292450 5.785301 -0.669000
								CHANNELS 3 Xrotation Yrotation Zrotation
								JOINT LeftShoulder_split
								{
									OFFSET 6.292450 5.785301 -0.669000
									CHANNELS 3 Xrotation Yrotation Zrotation
									JOINT LeftArm
									{
										OFFSET 13.907140 -6.093903 1.965100
										CHANNELS 3 Xrotation Yrotation Zrotation
										JOINT LeftForeArm
										{
											OFFSET 34.140198 0.000000 0.000000
											CHANNELS 3 Xrotation Yrotation Zrotation
											JOINT LeftHand
											{
												OFFSET 40.960209 0.000000 0.000000
												CHANNELS 3 Xrotation Yrotation Zrotation
												End Site
												{
													OFFSET 0 0 0
												}
											}
										}
									}
								}
							}
						}
						JOINT RightShoulder_virtual
						{
							OFFSET 0.000000 0.000000 0.000000
							CHANNELS 3 Xrotation Yrotation Zrotation
							JOINT RightShoulder
							{
								OFFSET -6.292450 5.785301 -0.669000
								CHANNELS 3 Xrotation Yrotation Zrotation
								JOINT RightShoulder_split
								{
									OFFSET -6.292450 5.785301 -0.669000
									CHANNELS 3 Xrotation Yrotation Zrotation
									JOINT RightArm
									{
										OFFSET -13.907140 -6.093903 1.965100
										CHANNELS 3 Xrotation Yrotation Zrotation
										JOINT RightForeArm
										{
											OFFSET -34.140198 0.000000 0.000000
											CHANNELS 3 Xrotation Yrotation Zrotation
											JOINT RightHand
											{
												OFFSET -40.960209 0.000000 0.000000
												CHANNELS 3 Xrotation Yrotation Zrotation
												End Site
												{
													OFFSET 0 0 0
												}
											}
										}
									}
								}
							}
						}
					}
				}
			}
		}
	}
}
MOTION
Frames: 7
Frame Time: 0.03333333
19.514662 69.576027 -59.926556 0.000000 0.000000 0.000000 36.745414 -11.080985 8.194642 -56.324755 -13.853225 0.565030 78.088467 -0.242184 -1.657384 8.678956 -5.102063 -13.626762 -30.333410 0.265495 -13.474565 0.000000 0.000000 0.000000 39.076977 -14.778368 9.049044 -75.607401 -7.509964 -12.307184 93.373549 -9.579981 4.142787 -25.395528 -17.784407 15.058243 -8.304681 7.141612 -12.259161 0.000000 0.000000 0.000000 40.850429 -8.790328 7.795198 34.409147 7.699476 6.118778 1.740210 1.041035 0.823575 0.117301 0.007149 0.154525 0.000000 0.000000 0.000000 3.854659 3.404890 2.022882 -24.069580 4.773446 9.082328 -42.087178 -39.948673 -43.516706 0.000000 0.000000 0.000000 3.641661 1.516714 0.260716 3.921892 -24.004616 -1.305627 3.349599 2.753313 -6.489520 -21.521762 -17.909832 -44.341957 -10.751064 -35.842193 -0.840241 0.000000 0.000000 0.000000 5.690490 2.311682 2.077637 0.706945 22.413081 3.976845 3.693618 0.909956 -1.032617 -53.936293 37.839128 28.916548 -33.428862 21.565895 17.521788 0.000000 0.000000 0.000000 
19.770714 70.218384 -59.220173 0.000000 0.000000 0.000000 36.316522 -12.724651 8.894969 -59.850127 -14.875688 -0.278000 81.055378 0.125472 -1.606809 11.227937 -4.205137 -14.337043 -28.934420 0.426942 -13.922939 0.000000 0.000000 0.000000 38.569166 -16.734336 9.824063 -74.448276 -7.929150 -11.737655 92.320723 -9.222067 3.278892 -25.313815 -18.526769 15.784361 -8.039646 7.188556 -11.618455 0.000000 0.000000 0.000000 40.385153 -10.166755 8.247786 34.345999 7.727316 5.654272 2.147818 0.963968 0.578413 0.119992 -0.059871 0.165509 0.000000 0.000000 0.000000 4.156764 3.388858 1.773021 -23.815466 5.139190 9.528356 -42.426885 -39.425662 -43.195643 0.000000 0.000000 0.000000 3.877560 1.469567 -0.037110 3.926305 -24.825118 -1.547372 2.498604 2.608319 -6.734245 -19.014405 -15.231443 -43.299349 -13.371738 -38.831350 -2.532918 0.000000 0.000000 0.000000 5.827571 2.231707 1.853075 0.548875 21.678479 4.001019 2.903033 0.558714 -0.576017 -51.589133 37.628858 29.435339 -34.118321 22.765386 18.989678 0.000000 0.000000 0.000000 
19.965075 70.830383 -58.275723 0.000000 0.000000 0.000000 35.903907 -14.073909 9.674418 -63.270501 -15.500139 -1.018589 83.539771 0.267045 -1.234216 13.329293 -3.628859 -15.317572 -28.005029 0.502451 -14.074989 0.000000 0.000000 0.000000 38.239374 -18.739367 10.863948 -73.418544 -8.385558 -11.407716 91.265917 -8.672450 2.286408 -25.450434 -19.299476 16.559625 -7.561727 7.264949 -11.097705 0.000000 0.000000 0.000000 39.988213 -11.270825 8.788784 34.227960 7.730511 5.123742 2.584887 0.994395 0.326656 0.121579 -0.163189 0.171388 0.000000 0.000000 0.000000 4.582401 3.491293 1.491930 -23.525379 5.674510 9.921275 -42.865325 -38.515198 -42.670692 0.000000 0.000000 0.000000 4.157047 1.519990 -0.331724 3.882432 -25.687542 -1.857772 1.673232 2.256222 -6.652136 -17.073936 -12.727443 -41.901288 -15.657053 -41.300416 -4.126546 0.000000 0.000000 0.000000 6.046970 2.249817 1.616054 0.500040 20.923023 3.715926 2.085286 0.039100 -0.232985 -49.010753 37.756698 29.435534 -34.880974 24.283993 20.729445 0.000000 0.000000 0.000000 
20.078569 71.442657 -57.071651 0.000000 0.000000 0.000000 35.582755 -15.134041 10.489280 -66.697835 -15.775060 -1.314132 85.575365 0.158805 -0.673098 14.966459 -3.244539 -16.378659 -27.193353 0.475827 -13.993618 0.000000 0.000000 0.000000 38.167674 -20.553731 12.049975 -72.479652 -8.859216 -11.333158 90.214225 -7.867017 1.172872 -25.666113 -20.080676 17.608899 -6.942009 7.359911 -10.696425 0.000000 0.000000 0.000000 39.658705 -12.061519 9.391239 34.055955 7.686526 4.589746 3.018141 1.128862 0.074728 0.132703 -0.284934 0.169035 0.000000 0.000000 0.000000 5.080293 3.696743 1.193903 -23.122181 6.315061 10.231707 -43.620873 -37.288393 -42.105637 0.000000 0.000000 0.000000 4.438513 1.664520 -0.612516 3.809127 -26.541815 -2.156133 0.941126 1.863075 -6.409744 -15.674647 -10.567744 -40.142781 -17.392392 -43.277284 -5.419126 0.000000 0.000000 0.000000 6.321850 2.354422 1.365808 0.558079 20.110787 3.115980 1.279178 -0.491342 0.120695 -46.429369 38.274877 28.935024 -35.661528 25.894521 22.604953 0.000000 0.000000 0.000000 
20.103712 72.162407 -55.536777 0.000000 0.000000 0.000000 35.498207 -16.001277 11.335374 -70.155373 -16.057083 -1.081457 87.159197 -0.092766 -0.149235 16.340422 -2.849670 -17.466348 -26.319683 0.425316 -13.815628 0.000000 0.000000 0.000000 38.261402 -21.881828 13.209123 -71.431361 -9.303040 -11.426493 89.147759 -6.856876 0.004701 -26.019867 -20.982184 18.892783 -6.127863 7.413494 -10.349200 0.000000 0.000000 0.000000 39.381863 -12.574121 10.034971 33.875040 7.569741 4.098022 3.413642 1.317243 -0.166664 0.137299 -0.387947 0.165939 0.000000 0.000000 0.000000 5.592842 3.945275 0.880690 -22.556565 7.002707 10.446987 -44.744849 -35.928882 -41.582475 0.000000 0.000000 0.000000 4.703836 1.855799 -0.861193 3.738229 -27.298635 -2.360729 0.479068 1.578973 -6.044297 -14.723735 -8.854546 -38.088605 -18.456623 -45.020564 -6.315058 0.000000 0.000000 0.000000 6.588079 2.489179 1.111743 0.685853 19.179171 2.194175 0.733707 -0.764693 0.554802 -44.285205 39.168737 28.249546 -36.426529 27.520920 24.524827 0.000000 0.000000 0.000000 
20.073765 73.020737 -53.639767 0.000000 0.000000 0.000000 35.582898 -16.663508 12.120527 -73.635969 -16.577950 -0.392593 88.431900 -0.299899 0.307104 17.677108 -2.161258 -18.620001 -25.470952 0.403149 -13.550305 0.000000 0.000000 0.000000 38.364974 -22.498735 14.109279 -69.972966 -9.733483 -11.569754 87.956437 -5.786352 -1.126900 -26.850618 -22.178205 20.047671 -5.048773 7.380329 -9.968017 0.000000 0.000000 0.000000 39.058631 -12.902506 10.680804 33.743457 7.323784 3.716318 3.742051 1.491046 -0.386639 0.152025 -0.443283 0.165836 0.000000 0.000000 0.000000 6.069605 4.157891 0.569171 -21.763932 7.679013 10.574496 -46.200223 -34.629015 -41.124996 0.000000 0.000000 0.000000 4.936805 2.029309 -1.067245 3.689728 -27.863801 -2.431599 0.297449 1.467349 -5.603976 -14.215178 -7.752079 -35.841336 -18.861101 -46.792117 -6.808828 0.000000 0.000000 0.000000 6.806747 2.589802 0.858547 0.848057 18.105109 0.987202 0.378758 -0.781826 0.959323 -43.138020 40.253764 27.874009 -37.178171 29.152238 26.431618 0.000000 0.000000 0.000000 
19.965664 74.066437 -51.304249 0.000000 0.000000 0.000000 35.797363 -17.168498 12.819929 -76.737722 -17.282544 0.558241 89.266536 -0.103619 0.583862 18.792577 -0.909646 -19.472944 -24.508389 0.369403 -13.240284 0.000000 0.000000 0.000000 38.337609 -22.477336 14.673611 -67.864288 -10.203572 -11.668028 86.474655 -4.852903 -2.105597 -28.309818 -23.774902 20.755261 -3.884014 7.248996 -9.486955 0.000000 0.000000 0.000000 38.641754 -13.196412 11.359990 33.728526 6.886811 3.461808 4.004581 1.604738 -0.600338 0.152836 -0.454167 0.183084 0.000000 0.000000 0.000000 6.467227 4.279841 0.258209 -20.652156 8.328108 10.614169 -47.837272 -33.741046 -40.699089 0.000000 0.000000 0.000000 5.139612 2.129660 -1.235765 3.670929 -28.204149 -2.357301 0.244031 1.512271 -5.301159 -14.111887 -7.274144 -33.474866 -18.633504 -48.655495 -6.901352 0.000000 0.000000 0.000000 6.951956 2.598764 0.592617 0.999077 16.892338 -0.460477 0.153764 -0.627402 1.357144 -43.235661 41.420818 28.188001 -37.864813 30.777143 28.235970 0.000000 0.000000 0.000000 
